<?xml version="1.0" standalone="no"?>
<!DOCTYPE svg PUBLIC "-//W3C//DTD SVG 20010904//EN"
 "http://www.w3.org/TR/2001/REC-SVG-20010904/DTD/svg10.dtd">
<svg version="1.0" xmlns="http://www.w3.org/2000/svg"
 width="205.000000pt" height="191.000000pt" viewBox="0 0 205.000000 191.000000"
 preserveAspectRatio="xMidYMid meet">
<metadata>
Created by potrace 1.15, written by Peter Selinger 2001-2017
</metadata>
<g transform="translate(0.000000,191.000000) scale(0.100000,-0.100000)"
fill="#000000" stroke="none">
<path d="M1012 1675 c-24 -65 -92 -121 -225 -184 -67 -32 -150 -75 -182 -96
-113 -72 -232 -204 -250 -277 -9 -34 -12 -35 -46 -2 -39 37 -111 43 -157 14
-46 -29 -76 -99 -68 -159 15 -108 98 -164 188 -126 15 6 18 2 18 -27 0 -93 58
-207 142 -283 148 -133 362 -193 652 -182 212 8 342 44 478 134 114 75 179
171 201 296 l11 64 32 -10 c147 -45 236 211 101 293 -50 31 -109 26 -152 -11
-20 -18 -37 -30 -39 -28 -2 2 -16 29 -31 58 -33 67 -118 158 -203 219 -35 24
-122 74 -193 109 -143 70 -206 120 -239 189 -12 24 -23 44 -24 44 -1 0 -8 -16
-14 -35z m-114 -554 c33 -10 74 -28 92 -41 l31 -22 76 38 c74 38 80 39 177 39
88 0 108 -4 158 -27 125 -58 188 -153 188 -283 0 -262 -292 -430 -687 -395
-240 22 -394 103 -464 246 -28 57 -32 74 -31 144 1 58 7 93 22 127 67 152 261
229 438 174z"/>
</g>
</svg>
